<svg width="96" height="111" viewBox="0 0 96 111" fill="none" xmlns="http://www.w3.org/2000/svg">
<path d="M71.7596 109.589L25.8512 108.284C25.8512 108.284 29.3067 87.6126 18.2198 81.8761C10.663 77.9631 3.95636 59.686 5.86421 47.2493C5.89016 47.0838 5.91612 46.9184 5.94532 46.7561C6.91222 41.1883 9.67666 36.8762 14.9622 35.7049C32.0484 31.9216 44.2418 34.8548 44.2418 34.8548C44.2418 34.8548 47.0646 34.8905 51.247 35.6757C51.3962 35.7017 51.5455 35.7309 51.6947 35.7633C63.5344 38.0832 85.4195 46.3441 86.3669 75.6756C87.6713 115.974 71.7596 109.582 71.7596 109.582V109.589Z" fill="#F0F0F0"/>
<path d="M51.247 35.679C51.1692 37.7816 50.6922 39.8711 49.8226 41.8568C48.0186 45.9743 44.7285 49.1183 40.5624 50.7114C28.0835 55.4875 13.5216 50.7504 6.15628 45.6141C6.12708 45.7763 5.54305 48.8555 5.51709 49.021C8.77795 51.2533 24.7383 53.4045 27.7656 53.4045C32.3632 53.4045 36.7889 52.642 40.7247 51.1332C45.0043 49.4947 48.382 46.263 50.2347 42.0353C51.1205 40.0171 51.6072 37.8984 51.6948 35.7634C51.5455 35.7309 51.3963 35.7017 51.247 35.6758V35.679Z" fill="#BFBFBF"/>
<path d="M54.6409 38.3558L47.3243 19.9555C47.3243 19.9555 56.1075 4.90033 49.2062 3.22934C42.3048 1.55511 35.1958 10.546 35.1958 10.546C35.1958 10.546 22.0226 5.9451 17.0064 9.70888C17.0064 9.70888 8.64168 -2.00102 3.62546 0.299431C-1.39399 2.59988 5.41002 19.1767 5.41002 19.1767C5.41002 19.1767 -4.94687 34.3811 2.99925 43.1611C10.9454 51.9443 40.8447 59.0534 54.6442 38.3526L54.6409 38.3558Z" fill="#F0F0F0"/>
<path d="M70.3352 98.5763C72.8271 99.6859 75.4292 100.815 78.1547 100.708C80.8802 100.601 83.7453 98.8456 84.1703 96.1525C84.3909 94.7606 83.9562 93.2713 84.4883 91.9669C85.2054 90.2148 87.5155 89.5367 89.3098 90.137C91.1073 90.7372 92.4247 92.2882 93.3721 93.9267C95.1437 96.9961 95.851 101.026 93.9529 104.018C92.3079 106.61 89.1865 107.785 86.2858 108.79C82.4182 110.13 78.1028 111.457 74.3553 109.812C70.5882 108.158 68.5344 103.378 69.9296 99.5075" fill="#F0F0F0"/>
<path d="M29.1153 30.0853C29.1153 30.0853 24.6118 28.2846 21.6884 30.5363L25.066 35.7148L29.1186 30.0886L29.1153 30.0853Z" fill="#BFBFBF"/>
<path d="M5.47815 53.7192L13.8071 98.067C13.8071 98.067 1.20171 110.9 17.4087 110.672C33.6157 110.449 28.8882 102.12 28.8882 102.12L23.7098 63.6251" fill="#F0F0F0"/>
<path d="M16.9998 111C12.6098 111 9.95565 109.994 9.10556 108.005C7.55787 104.384 12.5968 98.8651 13.4599 97.9566L7.85962 64.8029L8.49881 64.6958L14.1542 98.174L14.0374 98.2908C13.979 98.3492 8.21653 104.277 9.70257 107.749C10.4651 109.533 13.051 110.406 17.4053 110.345C23.4566 110.26 27.3567 108.992 28.687 106.678C29.8842 104.595 28.6188 102.298 28.6058 102.275L28.5766 102.22L28.5669 102.158L24.9654 75.3707L25.6078 75.2831L29.2029 102.012C29.417 102.418 30.5364 104.757 29.2548 106.996C27.785 109.559 23.8005 110.906 17.4151 110.994C17.2756 110.994 17.1393 110.994 17.003 110.994L16.9998 111Z" fill="#BFBFBF"/>
<path d="M26.6364 53.7192L34.9653 98.067C34.9653 98.067 22.3599 110.9 38.5669 110.672C54.7739 110.449 50.0464 102.12 50.0464 102.12L44.868 63.6251" fill="#F0F0F0"/>
<path d="M38.1581 111C33.7681 111 31.114 109.994 30.2639 108.005C28.7162 104.391 33.7454 98.8781 34.6149 97.9599L31.2697 80.1143L31.9089 79.9943L35.3158 98.1708L35.1957 98.2908C35.1373 98.3492 29.3749 104.277 30.8609 107.749C31.6234 109.533 34.2126 110.41 38.5637 110.345C44.6182 110.26 48.5215 108.992 49.8485 106.672C51.0458 104.582 49.7771 102.298 49.7642 102.275L49.7317 102.22L44.5468 63.664L45.1892 63.5764L50.3579 102.012C50.5721 102.418 51.6915 104.757 50.4098 106.996C48.94 109.559 44.9556 110.906 38.5702 110.994C38.4306 110.994 38.2944 110.994 38.1581 110.994V111Z" fill="#BFBFBF"/>
</svg>
